<svg xmlns="http://www.w3.org/2000/svg" viewBox="0 0 1280 720">
<defs>
<linearGradient id="calm" x1="0" y1="0" x2="1" y2="0"><stop offset="0" stop-color="<background>" stop-opacity="0.92"/><stop offset="0.42" stop-color="<background>" stop-opacity="0.62"/><stop offset="1" stop-color="<background>" stop-opacity="0"/></linearGradient>
</defs>
<rect width="1280" height="720" fill="<background>"/>
<circle cx="1180" cy="620" r="40" fill="none" stroke="<primary>" stroke-width="2.6" opacity="0.75"/><circle cx="1180" cy="620" r="84" fill="none" stroke="<primary>" stroke-width="1.4" opacity="0.72"/><circle cx="1180" cy="620" r="128" fill="none" stroke="<primary>" stroke-width="1.4" opacity="0.69"/><circle cx="1180" cy="620" r="172" fill="none" stroke="<primary>" stroke-width="1.4" opacity="0.67"/><circle cx="1180" cy="620" r="216" fill="none" stroke="<primary>" stroke-width="2.6" opacity="0.64"/><circle cx="1180" cy="620" r="260" fill="none" stroke="<primary>" stroke-width="1.4" opacity="0.61"/><circle cx="1180" cy="620" r="304" fill="none" stroke="<primary>" stroke-width="1.4" opacity="0.58"/><circle cx="1180" cy="620" r="348" fill="none" stroke="<primary>" stroke-width="1.4" opacity="0.55"/><circle cx="1180" cy="620" r="392" fill="none" stroke="<primary>" stroke-width="2.6" opacity="0.53"/><circle cx="1180" cy="620" r="436" fill="none" stroke="<primary>" stroke-width="1.4" opacity="0.5"/><circle cx="1180" cy="620" r="480" fill="none" stroke="<primary>" stroke-width="1.4" opacity="0.47"/><circle cx="1180" cy="620" r="524" fill="none" stroke="<primary>" stroke-width="1.4" opacity="0.44"/><circle cx="1180" cy="620" r="568" fill="none" stroke="<primary>" stroke-width="2.6" opacity="0.41"/><circle cx="1180" cy="620" r="612" fill="none" stroke="<primary>" stroke-width="1.4" opacity="0.39"/><circle cx="1180" cy="620" r="656" fill="none" stroke="<primary>" stroke-width="1.4" opacity="0.36"/><circle cx="1180" cy="620" r="700" fill="none" stroke="<primary>" stroke-width="1.4" opacity="0.33"/><circle cx="1180" cy="620" r="744" fill="none" stroke="<primary>" stroke-width="2.6" opacity="0.3"/><circle cx="1180" cy="620" r="788" fill="none" stroke="<primary>" stroke-width="1.4" opacity="0.27"/><circle cx="1180" cy="620" r="832" fill="none" stroke="<primary>" stroke-width="1.4" opacity="0.25"/><circle cx="1180" cy="620" r="876" fill="none" stroke="<primary>" stroke-width="1.4" opacity="0.22"/><circle cx="1180" cy="620" r="920" fill="none" stroke="<primary>" stroke-width="2.6" opacity="0.19"/><circle cx="1180" cy="620" r="964" fill="none" stroke="<primary>" stroke-width="1.4" opacity="0.16"/>
<rect width="1280" height="720" fill="url(#calm)"/>
</svg>
